<?xml version="1.0" encoding="utf-8"?>
<!-- Generator: Adobe Illustrator 22.0.1, SVG Export Plug-In . SVG Version: 6.00 Build 0)  -->
<svg version="1.1" id="Layer_1" xmlns="http://www.w3.org/2000/svg" xmlns:xlink="http://www.w3.org/1999/xlink" x="0px" y="0px"
	 viewBox="0 0 399.4 102.1" style="enable-background:new 0 0 399.4 102.1;" xml:space="preserve">
<style type="text/css">
	.st0{fill:#FFFFFF;}
</style>
<g>
	<g>
		<path class="st0" d="M234,15v31.1h-3.1V15c0-1.7-1.4-3.1-3.1-3.1c-0.6,0-1,0.1-1.6,0.4v18.2h-3.1V12.4c-0.5-0.3-1-0.4-1.6-0.4
			c-1.7,0-3.1,1.4-3.1,3.1v31.1h-3.1V15c0-2.3,1.3-4.3,3.1-5.4c0.9-0.5,2-0.8,3.1-0.8c1,0,2.2,0.3,3.1,0.8c0.9-0.5,2-0.8,3.1-0.8
			s2.2,0.3,3.1,0.8C232.7,10.7,234,12.8,234,15z"/>
		<path class="st0" d="M260.4,15v24.9c0,3.4-2.8,6.2-6.2,6.2H248c-3.4,0-6.2-2.8-6.2-6.2V15c0-3.4,2.8-6.2,6.2-6.2h6.2
			C257.6,8.8,260.4,11.6,260.4,15z M257.3,15c0-1.7-1.4-3.1-3.1-3.1H248c-1.7,0-3.1,1.4-3.1,3.1v24.9c0,1.7,1.4,3.1,3.1,3.1h6.2
			c1.7,0,3.1-1.4,3.1-3.1V15z"/>
		<path class="st0" d="M284.7,8.8l-7.4,37.4h-3.1L266,8.8h3.1l6.5,29.9l5.9-29.9H284.7z"/>
		<path class="st0" d="M292.5,46.2V8.8h3.1v37.4H292.5z"/>
		<path class="st0" d="M306.5,11.9v15.6h12.5v3.1h-12.5v12.5H322v3.1h-18.7V8.8H322v3.1H306.5z"/>
		<path class="st0" d="M234,63.8h-7.8v34.2h-3.1V63.8h-7.8v-3.1H234V63.8z"/>
		<path class="st0" d="M258.3,80.9c1.3,1.2,2.1,2.9,2.1,4.7v12.5h-3.1v-7c0-2.5,1.1-8.5-3.1-8.5h-9.3v15.6h-3.1V60.7h12.5
			c3.4,0,6.2,2.8,6.2,6.2v9.3C260.4,78,259.6,79.8,258.3,80.9z M254.2,79.4c1.7,0,3.1-1.4,3.1-3.1v-9.3c0-1.7-1.4-3.1-3.1-3.1h-9.3
			v15.6H254.2z"/>
		<path class="st0" d="M285.6,66.9v31.1h-3.1V82.5h-12.4v15.6h-3.1V60.7h12.5C282.8,60.7,285.6,63.5,285.6,66.9z M282.5,79.4V66.9
			c0-1.7-1.4-3.1-3.1-3.1h-9.3v15.6H282.5z"/>
		<path class="st0" d="M309,66.9c0-1.7-1.4-3.1-3.1-3.1h-6.2c-1.7,0-3.1,1.4-3.1,3.1v24.9c0,1.7,1.4,3.1,3.1,3.1h6.2
			c1.7,0,3.1-1.4,3.1-3.1v-6.2h3.1v6.2c-0.1,3.4-2.7,6.1-6.2,6.2h-6.2c-3.3,0-6.1-2.7-6.2-6.2V66.9c0.1-3.4,2.7-6.1,6.2-6.2h6.2
			c3.3,0,6.1,2.7,6.2,6.2v6.2H309V66.9z"/>
		<path class="st0" d="M337.3,60.7v15.6c0,1.8-0.8,3.5-2.1,4.7c1.3,1.2,2.1,2.9,2.1,4.7v12.5h-3.1v-7c0-2.5,1.1-8.5-3.1-8.5h-9.3
			v15.6h-3.1V60.7h3.1v18.7h9.3c4.2,0,3.1-5.9,3.1-8.5V60.7H337.3z"/>
		<path class="st0" d="M346.9,63.8v15.6h12.5v3.1h-12.5v12.5h15.6v3.1h-18.7V60.7h18.7v3.1H346.9z"/>
		<path class="st0" d="M386.8,80.9c1.3,1.2,2.1,2.9,2.1,4.7v12.5h-3.1v-7c0-2.5,1.1-8.5-3.1-8.5h-9.3v15.6h-3.1V60.7h12.5
			c3.4,0,6.2,2.8,6.2,6.2v9.3C389,78,388.2,79.8,386.8,80.9z M382.7,79.4c1.7,0,3.1-1.4,3.1-3.1v-9.3c0-1.7-1.4-3.1-3.1-3.1h-9.3
			v15.6H382.7z"/>
	</g>
	<g>
		<path class="st0" d="M1.9,36.3c0-9,3.2-16.9,9.5-23.5c6.3-6.6,13.8-9.9,22.3-9.9v2.7c-7.8,0-14.6,3.1-20.3,9.2
			c-5.7,6.1-8.6,13.3-8.6,21.5v36.3H1.9V36.3z M69.2,12c-4.2,2.5-7.6,5.7-10.1,9.8c-2.5-4.1-5.9-7.4-10.1-9.8
			c-4.2-2.5-8.8-3.7-13.7-3.7c-7.8,0-14.5,2.7-20,8.1c-5.5,5.4-8.2,12-8.2,19.7v62.7H55h8.1h47.7V36.1c0-7.7-2.7-14.3-8.1-19.7
			C97.2,11,90.7,8.3,83,8.3C78,8.3,73.4,9.5,69.2,12z"/>
		<path class="st0" d="M197.8,8.5v46.8h-11.4v43.5h-57.1V55.2H118V8.5h20.9h37.9H197.8z M124.1,96.1h2.7V57.8h-8.7v2.9h6V96.1z"/>
	</g>
</g>
</svg>
